<?xml version="1.0" standalone="no"?>
<!DOCTYPE svg PUBLIC "-//W3C//DTD SVG 20010904//EN"
 "http://www.w3.org/TR/2001/REC-SVG-20010904/DTD/svg10.dtd">
<svg version="1.0" xmlns="http://www.w3.org/2000/svg"
 width="700.000000pt" height="700.000000pt" viewBox="0 0 700.000000 700.000000"
 preserveAspectRatio="xMidYMid meet">
<metadata>
Created by potrace 1.14, written by Peter Selinger 2001-2017
</metadata>
<g transform="translate(0.000000,700.000000) scale(0.100000,-0.100000)"
fill="#000000" stroke="none">
<path d="M3215 6994 c-527 -52 -991 -193 -1418 -433 -575 -321 -1037 -783
-1359 -1358 -213 -382 -345 -781 -415 -1258 -14 -95 -18 -187 -18 -445 0 -348
7 -419 61 -695 198 -995 833 -1864 1731 -2366 381 -214 782 -346 1258 -416
152 -22 706 -25 855 -5 691 95 1270 339 1784 752 639 514 1087 1249 1240 2038
55 283 61 346 61 692 0 346 -6 409 -61 692 -148 762 -575 1482 -1179 1989
-517 433 -1119 699 -1800 795 -114 16 -633 28 -740 18z m-276 -2343 c101 -21
216 -71 269 -115 18 -16 45 -49 60 -75 23 -40 27 -57 27 -126 0 -92 -18 -135
-84 -202 l-40 -42 -63 28 c-198 90 -494 114 -616 52 -117 -60 -122 -165 -11
-221 21 -11 119 -47 217 -79 458 -150 650 -308 699 -574 51 -281 -74 -528
-330 -652 -235 -114 -597 -137 -907 -59 -186 47 -312 137 -344 244 -34 113
-13 202 68 284 79 81 80 82 161 30 135 -85 298 -133 456 -134 163 0 259 39
293 122 28 68 12 118 -51 158 -51 32 -50 32 -303 121 -292 102 -409 165 -509
275 -90 98 -130 210 -131 360 0 104 17 179 60 270 92 191 304 318 590 353 116
15 379 5 489 -18z m2238 -58 c57 -61 94 -150 100 -241 7 -96 -12 -169 -67
-262 -21 -36 -216 -279 -432 -540 l-394 -475 427 -3 c325 -2 429 -5 437 -15
27 -32 53 -142 53 -223 0 -136 -47 -209 -151 -233 -29 -7 -290 -11 -712 -11
l-666 0 -31 39 c-17 22 -44 66 -59 98 -24 52 -27 69 -27 164 0 104 1 107 42
191 44 88 68 118 665 828 109 129 198 238 198 243 0 4 -185 7 -411 7 l-410 0
-26 57 c-20 43 -27 78 -31 148 -7 137 21 204 100 244 42 21 52 21 702 21 l658
0 35 -37z"/>
</g>
</svg>
