<svg width="100" height="100" viewBox="0 0 100 100" fill="none" xmlns="http://www.w3.org/2000/svg">
<circle cx="50" cy="50" r="50" fill="#2A8378"/>
<path d="M35.1104 51.432C33.7024 50.952 32.4224 50.472 31.2704 49.992C30.1184 49.48 29.1264 48.872 28.2944 48.168C27.4624 47.464 26.8064 46.632 26.3264 45.672C25.8784 44.68 25.6544 43.48 25.6544 42.072C25.6544 39.352 26.6944 37.176 28.7744 35.544C30.8864 33.912 33.8304 33.096 37.6064 33.096C38.9824 33.096 40.2624 33.192 41.4464 33.384C42.6304 33.576 43.6384 33.88 44.4704 34.296C45.3344 34.68 46.0064 35.192 46.4864 35.832C46.9664 36.44 47.2064 37.16 47.2064 37.992C47.2064 38.824 47.0144 39.544 46.6304 40.152C46.2464 40.728 45.7824 41.224 45.2384 41.64C44.5344 41.192 43.5904 40.808 42.4064 40.488C41.2224 40.136 39.9264 39.96 38.5184 39.96C37.0784 39.96 36.0224 40.168 35.3504 40.584C34.6784 40.968 34.3424 41.464 34.3424 42.072C34.3424 42.552 34.5504 42.952 34.9664 43.272C35.3824 43.56 36.0064 43.832 36.8384 44.088L39.3824 44.904C42.3904 45.864 44.6944 47.096 46.2944 48.6C47.9264 50.072 48.7424 52.088 48.7424 54.648C48.7424 57.368 47.6704 59.576 45.5264 61.272C43.3824 62.936 40.2304 63.768 36.0704 63.768C34.5984 63.768 33.2224 63.64 31.9424 63.384C30.6944 63.16 29.5904 62.824 28.6304 62.376C27.7024 61.896 26.9664 61.32 26.4224 60.648C25.9104 59.944 25.6544 59.144 25.6544 58.248C25.6544 57.32 25.9264 56.536 26.4704 55.896C27.0144 55.224 27.6064 54.712 28.2464 54.36C29.1424 55.064 30.2304 55.672 31.5104 56.184C32.8224 56.696 34.2464 56.952 35.7824 56.952C37.3504 56.952 38.4544 56.712 39.0944 56.232C39.7344 55.752 40.0544 55.192 40.0544 54.552C40.0544 53.912 39.7984 53.432 39.2864 53.112C38.7744 52.76 38.0544 52.424 37.1264 52.104L35.1104 51.432ZM65.1903 40.632H53.3823C53.1583 40.28 52.9503 39.8 52.7583 39.192C52.5663 38.584 52.4703 37.944 52.4703 37.272C52.4703 36.024 52.7423 35.128 53.2863 34.584C53.8623 34.04 54.5983 33.768 55.4943 33.768H73.3983C74.8063 34.92 75.5103 36.456 75.5103 38.376C75.5103 39.176 75.3183 39.976 74.9343 40.776C74.5823 41.544 74.1183 42.28 73.5423 42.984L62.6463 56.136H74.9343C75.1583 56.488 75.3663 56.968 75.5583 57.576C75.7503 58.184 75.8463 58.824 75.8463 59.496C75.8463 60.744 75.5583 61.64 74.9823 62.184C74.4383 62.728 73.7183 63 72.8223 63H53.9103C53.3663 62.552 52.9183 61.944 52.5663 61.176C52.2143 60.408 52.0383 59.528 52.0383 58.536C52.0383 57.736 52.2463 56.92 52.6623 56.088C53.0783 55.256 53.5743 54.488 54.1503 53.784L65.1903 40.632Z" fill="white"/>
</svg>
